<svg xmlns="http://www.w3.org/2000/svg" viewBox="0 0 64 80" x="0px" y="0px"><path d="m32,31c-15.99,0-29,13.01-29,29,0,.55.45,1,1,1h56c.55,0,1-.45,1-1,0-15.99-13.01-29-29-29Zm22.86,14.65l-3.46,2c-.89-1.4-1.93-2.71-3.13-3.91-1.18-1.18-2.5-2.23-3.91-3.13l2-3.46c3.43,2.16,6.35,5.07,8.51,8.5Zm-22.02,5.39l5.31-14.15s.07-.07.12-.06c.04.01.07.06.07.11l-2.54,14.91c-.91-.43-1.91-.71-2.96-.81Zm5.96-16.14c-1.05-.29-2.13.26-2.52,1.28l-.43,1.14c-.94-.16-1.89-.26-2.85-.3v-4c4.18.15,8.13,1.26,11.62,3.11l-2,3.47c-.82-.43-1.66-.8-2.52-1.13l.2-1.2c.02-.11.03-.24.03-.36,0-.94-.64-1.77-1.55-2.01Zm-17.42,4.69l-2-3.46c3.49-1.85,7.44-2.96,11.62-3.11v4.02c-3.4.15-6.67,1.01-9.63,2.55Zm-3.72-2.45l2,3.46c-1.4.89-2.71,1.93-3.91,3.13-1.2,1.2-2.23,2.52-3.13,3.91l-3.46-2c2.16-3.43,5.08-6.34,8.51-8.5Zm-9.51,10.23l3.45,1.99c-1.54,2.95-2.4,6.22-2.55,9.63h-4.03c.15-4.19,1.27-8.13,3.12-11.62Zm9.01-2.23c3.96-3.96,9.24-6.15,14.85-6.15,1.04,0,2.09.1,3.12.26l-4.45,11.85c-4.01.6-7.16,3.84-7.61,7.89h-12.04c.24-5.24,2.4-10.12,6.12-13.85Zm7.92,13.85c.49-3.39,3.41-6,6.93-6s6.44,2.61,6.93,6h-13.86Zm15.87,0c-.27-2.42-1.51-4.56-3.31-6.01l2.13-12.51c2.64,1.05,5.08,2.65,7.09,4.67,3.73,3.73,5.88,8.61,6.12,13.85h-12.04Zm14.01,0c-.15-3.4-1.01-6.67-2.55-9.63l3.45-1.99c1.85,3.49,2.97,7.43,3.12,11.62h-4.03ZM29,25c.55,0,1,.45,1,1s-.45,1-1,1H13c-.55,0-1-.45-1-1s.45-1,1-1h16Zm-26,1c0-.55.45-1,1-1h5c.55,0,1,.45,1,1s-.45,1-1,1h-5c-.55,0-1-.45-1-1Zm0-14c0-.55.45-1,1-1h7c.55,0,1,.45,1,1s-.45,1-1,1h-7c-.55,0-1-.45-1-1Zm0,7c0-.55.45-1,1-1h19c.55,0,1,.45,1,1s-.45,1-1,1H4c-.55,0-1-.45-1-1Zm11-7c0-.55.45-1,1-1h24.07c1.61,0,2.93-1.31,2.93-2.93s-1.31-2.92-2.93-2.92h-1.87c-.51,0-.93.42-.93.92s.42.93.93.93h1.8c.55,0,1,.45,1,1s-.45,1-1,1h-1.8c-1.61,0-2.93-1.31-2.93-2.93s1.31-2.92,2.93-2.92h1.87c2.72,0,4.93,2.21,4.93,4.92s-2.21,4.93-4.93,4.93H15c-.55,0-1-.45-1-1Zm34.28,1.07c0-1.61,1.31-2.92,2.93-2.92h1.87c2.72,0,4.93,2.21,4.93,4.92s-2.21,4.93-4.93,4.93h-26.07c-.55,0-1-.45-1-1s.45-1,1-1h26.07c1.61,0,2.93-1.31,2.93-2.93s-1.31-2.92-2.93-2.92h-1.87c-.51,0-.93.42-.93.92s.42.93.93.93h1.8c.55,0,1,.45,1,1s-.45,1-1,1h-1.8c-1.61,0-2.93-1.31-2.93-2.93Zm7.8,11.93c2.72,0,4.93,2.21,4.93,4.93s-2.21,4.92-4.93,4.92h-1.87c-1.61,0-2.93-1.31-2.93-2.92s1.31-2.93,2.93-2.93h1.8c.55,0,1,.45,1,1s-.45,1-1,1h-1.8c-.51,0-.93.42-.93.93s.42.92.93.92h1.87c1.61,0,2.93-1.31,2.93-2.92s-1.31-2.93-2.93-2.93h-22.07c-.55,0-1-.45-1-1s.45-1,1-1h22.07Z"/><text x="0" y="79" fill="#000000" font-size="5px" font-weight="bold" font-family="'Helvetica Neue', Helvetica, Arial-Unicode, Arial, Sans-serif">Created by Andi Nur Abdillah</text><text x="0" y="84" fill="#000000" font-size="5px" font-weight="bold" font-family="'Helvetica Neue', Helvetica, Arial-Unicode, Arial, Sans-serif">from the Noun Project</text></svg>