<svg xmlns="http://www.w3.org/2000/svg" viewBox="0 0 64 80" x="0px" y="0px"><path d="M23.455,37.7l-.8,3.43a.936.936,0,0,1-1.02.7L9.27,41.837V34.68a3.128,3.128,0,0,0-3.13-3.13H2a1,1,0,0,0-1,1V53.13a1,1,0,0,0,1,1H6.14a3.137,3.137,0,0,0,3.13-3.14V43.836l12.3-.006A2.9,2.9,0,0,0,24.6,41.586l.834-3.579A5.632,5.632,0,0,0,30.11,35.25l-10.52-2.4A5.6,5.6,0,0,0,23.455,37.7Z"/><path d="M54.04,17.46,21.03,9.94a2.391,2.391,0,0,0-2.91,1.82L14.6,27.18a2.453,2.453,0,0,0,1.84,2.9s33.393,7.556,33.58,7.59c1.717.308,2.37-1.34,2.51-2.01l3.46-15.12A2.6,2.6,0,0,0,54.04,17.46Zm-29.9,3.92a3.08,3.08,0,1,1,3.08-3.08A3.081,3.081,0,0,1,24.14,21.38Z"/><circle cx="24.14" cy="18.3" r="1.08"/><path d="M62.75,22.2a1.013,1.013,0,0,0-.85-.34l-4.26.42L54.88,34.37l3.66,2.23a.985.985,0,0,0,.91.07.961.961,0,0,0,.58-.7l2.94-12.89A.975.975,0,0,0,62.75,22.2Z"/><text x="0" y="79" fill="#000000" font-size="5px" font-weight="bold" font-family="'Helvetica Neue', Helvetica, Arial-Unicode, Arial, Sans-serif">Created by DinosoftLabs</text><text x="0" y="84" fill="#000000" font-size="5px" font-weight="bold" font-family="'Helvetica Neue', Helvetica, Arial-Unicode, Arial, Sans-serif">from the Noun Project</text></svg>