<svg xmlns="http://www.w3.org/2000/svg" xmlns:xlink="http://www.w3.org/1999/xlink" version="1.1" x="0px" y="0px" viewBox="0 0 100 125" enable-background="new 0 0 100 100" xml:space="preserve"><path fill-rule="evenodd" clip-rule="evenodd" d="M71.25,19.28125c0.1669922,0.0996094,0.2836914,0.25,0.3500977,0.449707  l0.6000977,2.800293c0.1333008,0.5332031-0.0498047,0.8330078-0.5498047,0.8999023l-7.4501953,1.6499023L65.75,31.980957  l7.3500977-1.6000977C73.5668945,30.2475586,73.8666992,30.4477539,74,30.980957l0.6503906,2.800293v0.25  c0.5332031-0.4335938,1.199707-0.6503906,2-0.6503906c0.8330078,0,1.5996094,0.3168945,2.2998047,0.9501953  c0.4335938,0.4335938,0.7167969,0.9335938,0.8500977,1.5h0.6499023c0.3334961,0,0.6499023,0.1166992,0.9501953,0.3500977  L92.2001953,47.03125c0.2666016,0.2666016,0.3999023,0.5664063,0.3999023,0.8999023v22.6499023H93.75  c0.3666992,0,0.6669922,0.1166992,0.9003906,0.3500977C94.8837891,71.1977539,95,71.5146484,95,71.8808594v4  c0,0.3666992-0.1162109,0.6669922-0.3496094,0.9003906S94.1166992,77.1308594,93.75,77.1308594H84  c-0.2998047,0.6337891-0.7329102,1.2001953-1.2998047,1.7001953c-1.2666016,1.3334961-2.8999023,2-4.8999023,2  c-1.9667969,0-3.6166992-0.6665039-4.9501953-2c-0.5-0.4335938-0.9165039-1-1.25-1.7001953h-39  C32.2001953,77.7978516,31.75,78.3642578,31.25,78.8310547c-1.2666016,1.3334961-2.8999023,2-4.8999023,2  c-1.9663086,0-3.6166992-0.6665039-4.949707-2c-0.4003906-0.3999023-0.8168945-0.9667969-1.25-1.7001953H6.25  c-0.3330078,0-0.6162109-0.1162109-0.8496094-0.3496094C5.1337891,76.5146484,5,76.2143555,5,75.8808594v-4  c0-0.3662109,0.1337891-0.6831055,0.4003906-0.949707C5.6337891,70.6977539,5.9169922,70.5810547,6.25,70.5810547h1.2001953  V49.1308594c0-0.3330078,0.1166992-0.6162109,0.3500977-0.8496094C8.0668945,48.0146484,8.3837891,47.8808594,8.75,47.8808594H10  l-0.5996094-2.7998047c-0.0336914-0.2001953,0-0.3833008,0.0996094-0.5498047c0.1337891-0.1669922,0.300293-0.2836914,0.5-0.3500977  l7.7001953-1.6499023l-1.5498047-6.9501953l-7.75,1.6499023c-0.2001953,0.0336914-0.3833008,0-0.550293-0.1000977  c-0.199707-0.1333008-0.3164063-0.2998047-0.3500977-0.5L6.9501953,33.78125c-0.0664063-0.5,0.1333008-0.800293,0.6000977-0.9003906  l63.1000977-13.699707C70.8168945,19.1474609,71.0170898,19.1811523,71.25,19.28125z M51.75,27.730957l1.550293,6.9501953  L64.25,32.3310547l-1.5-6.9501953L51.75,27.730957z M50.300293,28.0810547l-9.4501953,2.0498047l1.4501953,7l9.5-2.1499023  L50.300293,28.0810547z M63.7001953,36.9311523l-50.0498047,10.949707h50.0498047V37.0810547  C63.7001953,37.0146484,63.7001953,36.9643555,63.7001953,36.9311523z M30.1503906,39.78125l10.699707-2.3500977l-1.5-6.9501953  l-10.75,2.3999023L30.1503906,39.78125z M27.1503906,33.1811523l-9.5,2.1000977l1.5,6.949707l9.5498047-2.1499023  L27.1503906,33.1811523z M27.9003906,58.3808594H19.25V62.53125h8.6503906V58.3808594z M66.2001953,56.230957h9.7001953V38.3310547  h-9.7001953V56.230957z M78.4003906,28.03125C78.9335938,28.1645508,79.1337891,28.4643555,79,28.9311523l-0.5996094,3.5  c-0.1000977,0.3999023-0.3500977,0.6000977-0.75,0.6000977H77.5c-0.4663086-0.0668945-0.6665039-0.3500977-0.5996094-0.8500977  l0.6499023-3.550293C77.6166992,28.1645508,77.9003906,27.9643555,78.4003906,28.03125z M84.7001953,31.980957  c-0.0332031,0.2001953-0.1333008,0.3500977-0.2998047,0.4501953l-2.9501953,2  c-0.1000977,0.1000977-0.2333984,0.1499023-0.3999023,0.1499023c-0.2333984,0-0.4501953-0.1166992-0.6499023-0.3500977  c-0.300293-0.3999023-0.2167969-0.75,0.25-1.0498047l2.8999023-1.9501953  c0.1665039-0.1333008,0.3500977-0.1665039,0.5498047-0.1000977c0.2001953,0.0336914,0.3500977,0.1337891,0.4501953,0.300293  C84.6835938,31.5644531,84.7333984,31.7475586,84.7001953,31.980957z M68.7001953,35.8310547h4.75  C73.550293,35.3974609,73.7333984,35.0146484,74,34.6811523L68.7001953,35.8310547z M75.3500977,35.3808594  c-0.1333008,0.1337891-0.2333984,0.2836914-0.2998047,0.4501953H78.25  c-0.0996094-0.1665039-0.2163086-0.3164063-0.3496094-0.4501953c-0.3334961-0.3330078-0.75-0.5-1.25-0.5  C76.1835938,34.8808594,75.75,35.0478516,75.3500977,35.3808594z M79.9501953,38.3310547h-2.5498047V56.230957h12.699707v-7.7998047  l-8.5498047-8.550293v2.8500977c0,0.5-0.25,0.75-0.75,0.75c-0.5332031,0-0.800293-0.25-0.800293-0.75v-4.3500977  L79.9501953,38.3310547z M81.550293,44.980957v0.300293c0,0.5-0.25,0.75-0.75,0.75  c-0.2333984,0-0.4165039-0.0668945-0.550293-0.2001953C80.0834961,45.6645508,80,45.480957,80,45.28125v-0.300293  c0-0.5,0.2670898-0.75,0.800293-0.75C81.300293,44.230957,81.550293,44.480957,81.550293,44.980957z M22.2001953,72.3310547  c-0.2001953,0.5-0.2998047,1.0166016-0.2998047,1.5498047c0,0.5336914,0.0830078,1.050293,0.25,1.550293  c0.199707,0.6000977,0.5498047,1.1499023,1.0498047,1.6499023c0.8334961,0.8334961,1.8833008,1.25,3.1499023,1.25  s2.3334961-0.4165039,3.2001953-1.25c0.5-0.5,0.8500977-1.0498047,1.0498047-1.6499023  c0.1669922-0.3666992,0.25-0.8833008,0.25-1.550293c0-0.4663086-0.0830078-0.9833984-0.25-1.5498047V72.28125  c-0.2333984-0.5336914-0.5830078-1.0668945-1.0498047-1.6000977c-0.8666992-0.8334961-1.9335938-1.25-3.2001953-1.25  c-1.2333984,0-2.2998047,0.4165039-3.199707,1.25c-0.4335938,0.5-0.75,1.0332031-0.9501953,1.6000977V72.3310547z   M19.4501953,73.1308594H7.5v1.5h11.9501953l-0.0498047-0.75L19.4501953,73.1308594z M92.5,73.1308594h-7.75l0.050293,0.75  l-0.050293,0.75h7.75V73.1308594z M80.9501953,70.6811523c-0.8666992-0.8334961-1.9165039-1.25-3.1499023-1.25  c-1.300293,0-2.3666992,0.4165039-3.2001953,1.25c-0.4663086,0.4663086-0.7998047,1-1,1.6000977v0.0498047  c-0.199707,0.5-0.2998047,1.0166016-0.2998047,1.5498047c0,0.5336914,0.0834961,1.050293,0.25,1.550293  c0.2998047,0.699707,0.6499023,1.25,1.0498047,1.6499023c0.8999023,0.8334961,1.9667969,1.25,3.2001953,1.25  s2.2832031-0.4165039,3.1499023-1.25c0.5332031-0.4667969,0.8999023-1.0166016,1.1000977-1.6499023  c0.1665039-0.5,0.25-1.0166016,0.25-1.550293c0-0.5332031-0.1000977-1.0498047-0.300293-1.5498047V72.28125  C81.800293,71.7143555,81.4501953,71.1811523,80.9501953,70.6811523z M70.75,73.8808594l0.050293-0.75h-37.5l0.0498047,1.5  H70.800293L70.75,73.8808594z"/><text x="0" y="115" fill="#000000" font-size="5px" font-weight="bold" font-family="'Helvetica Neue', Helvetica, Arial-Unicode, Arial, Sans-serif">Created by Saeful Muslim</text><text x="0" y="120" fill="#000000" font-size="5px" font-weight="bold" font-family="'Helvetica Neue', Helvetica, Arial-Unicode, Arial, Sans-serif">from the Noun Project</text></svg>